<?xml version="1.0" standalone="no"?>
<!DOCTYPE svg PUBLIC "-//W3C//DTD SVG 20010904//EN"
 "http://www.w3.org/TR/2001/REC-SVG-20010904/DTD/svg10.dtd">
<svg version="1.0" xmlns="http://www.w3.org/2000/svg"
 width="512.000000pt" height="512.000000pt" viewBox="0 0 512.000000 512.000000"
 preserveAspectRatio="xMidYMid meet">
<metadata>
Created by potrace 1.14, written by Peter Selinger 2001-2017
</metadata>
<g transform="translate(0.000000,512.000000) scale(0.100000,-0.100000)"
fill="#000000" stroke="none">
<path d="M2432 4939 c-72 -28 -144 -101 -172 -176 -38 -101 -20 -240 42 -325
10 -14 9 -24 -5 -54 -23 -47 -45 -154 -58 -276 -11 -113 0 -253 30 -366 l19
-72 -22 -5 c-11 -3 -85 -15 -163 -28 l-141 -24 -46 48 c-65 67 -123 93 -221
97 -64 3 -92 -1 -138 -18 -263 -99 -263 -501 0 -600 46 -17 74 -21 138 -18 97
4 154 29 222 97 l48 47 90 -15 91 -16 -48 -275 c-26 -151 -54 -316 -63 -365
l-16 -90 -155 -44 -155 -44 -193 192 c-181 180 -194 191 -230 191 -52 0 -74
-14 -86 -58 -5 -20 -24 -136 -40 -257 -17 -121 -33 -233 -36 -248 -4 -21 -26
-42 -94 -87 l-89 -60 -172 35 c-95 19 -190 35 -211 35 -51 0 -78 -27 -78 -79
0 -34 24 -71 206 -327 226 -318 254 -350 365 -433 160 -120 360 -205 667 -281
l42 -11 0 -57 0 -57 378 -377 377 -378 45 0 45 0 377 378 378 377 0 57 c0 55
1 58 28 64 242 54 467 142 632 248 124 81 182 146 406 460 190 265 214 303
214 338 0 51 -27 78 -78 78 -21 0 -116 -16 -211 -35 l-172 -35 -89 60 c-68 45
-90 66 -94 87 -3 15 -19 127 -36 248 -16 121 -35 237 -40 257 -12 44 -34 58
-86 58 -36 0 -49 -11 -230 -191 l-192 -191 -155 43 -156 44 -16 90 c-9 50 -37
214 -63 365 l-48 275 91 16 90 15 48 -47 c74 -74 124 -94 237 -94 80 0 103 4
144 24 110 54 169 147 174 276 5 106 -21 177 -88 245 -68 67 -139 93 -245 88
-98 -4 -156 -30 -221 -97 l-46 -48 -141 24 c-78 13 -152 25 -163 28 l-22 5 19
70 c29 112 41 251 30 365 -12 123 -34 231 -58 279 -14 30 -15 40 -5 54 62 85
80 224 42 325 -29 77 -100 148 -175 176 -74 28 -180 28 -253 0z m206 -169
c130 -79 74 -280 -78 -280 -85 0 -150 65 -150 150 0 54 27 102 72 130 20 12
51 20 78 20 27 0 58 -8 78 -20z m40 -476 c18 -39 42 -201 42 -286 0 -81 -20
-202 -46 -280 l-16 -48 -98 0 -98 0 -16 48 c-46 138 -57 291 -31 449 24 148
19 143 145 143 105 0 107 0 118 -26z m-920 -724 c130 -79 74 -280 -78 -280
-85 0 -150 65 -150 150 0 54 27 102 72 130 20 12 51 20 78 20 27 0 58 -8 78
-20z m1760 0 c130 -79 74 -280 -78 -280 -85 0 -150 65 -150 150 0 85 65 150
150 150 27 0 58 -8 78 -20z m-620 -86 c122 -21 222 -40 222 -44 0 -4 -100 -23
-222 -44 -297 -49 -379 -49 -675 0 -123 21 -223 40 -223 44 0 4 93 23 208 42
291 50 395 50 690 2z m-418 -346 c0 -62 -2 -65 -132 -294 -73 -128 -133 -232
-134 -231 -1 1 20 128 47 282 26 154 49 286 49 293 0 8 24 12 85 12 l85 0 0
-62z m330 50 c0 -7 23 -139 49 -293 27 -154 48 -281 47 -282 -1 -1 -61 103
-134 231 -130 229 -132 232 -132 294 l0 62 85 0 c61 0 85 -4 85 -12z m-120
-549 c69 -122 132 -225 141 -229 36 -20 581 -170 615 -170 35 0 48 11 185 146
143 142 147 145 153 118 3 -16 15 -96 26 -179 31 -230 18 -208 178 -314 154
-102 156 -102 287 -75 42 9 78 14 80 12 5 -6 -213 -303 -222 -301 -5 1 -40 21
-78 44 -104 63 -296 152 -415 193 -238 80 -457 116 -717 116 l-166 0 -98 -97
-99 -97 -99 97 -98 97 -166 0 c-198 0 -361 -20 -542 -65 -206 -52 -457 -157
-615 -259 -30 -19 -59 -31 -63 -27 -18 18 -215 296 -212 299 2 2 38 -3 80 -12
131 -27 133 -27 287 75 160 106 147 84 178 314 11 83 23 163 26 179 6 27 10
24 153 -118 138 -137 150 -146 186 -146 38 0 543 138 600 164 24 11 54 57 155
234 69 122 127 221 130 221 3 0 61 -99 130 -220z m-312 -902 c151 -151 161
-127 -158 -376 -140 -109 -256 -198 -257 -197 0 0 25 150 56 331 l57 330 59 6
c146 14 129 21 243 -94z m662 86 c5 -4 120 -657 117 -659 -1 -1 -117 88 -257
197 -319 249 -309 225 -158 376 l103 104 95 -7 c52 -3 97 -8 100 -11z m-1143
-35 c-3 -13 -13 -70 -23 -127 l-18 -103 -65 6 c-91 9 -294 51 -361 75 l-55 19
45 19 c76 33 230 82 340 107 136 32 144 32 137 4z m1458 -3 c116 -26 265 -73
343 -107 l47 -20 -55 -19 c-67 -24 -270 -66 -361 -75 l-65 -6 -18 103 c-10 57
-20 114 -23 127 -7 28 -4 28 132 -3z m-2025 -287 c81 -32 206 -63 335 -83 55
-8 114 -17 131 -20 l30 -5 -15 -96 -15 -95 -34 6 c-19 3 -73 17 -121 31 -216
62 -366 134 -537 259 -10 7 -1 17 38 41 l52 32 35 -22 c20 -12 65 -34 101 -48z
m2681 18 c14 -10 11 -15 -25 -43 -126 -97 -313 -183 -515 -239 -69 -19 -130
-34 -136 -34 -6 0 -17 39 -26 95 l-15 95 30 5 c17 3 76 12 131 20 189 29 413
100 459 145 9 9 38 -5 97 -44z m-1150 -336 l289 -225 -295 -295 -295 -295
-295 295 -295 295 292 228 c161 125 297 226 301 224 5 -1 139 -104 298 -227z"/>
</g>
</svg>
